<svg xmlns="http://www.w3.org/2000/svg" xmlns:xlink="http://www.w3.org/1999/xlink" width="60" zoomAndPan="magnify" viewBox="0 0 45 44.999999" height="60" preserveAspectRatio="xMidYMid meet" version="1.0"><defs><clipPath id="7b1956cdff"><path d="M 1.125 1.5 L 43.945312 1.5 L 43.945312 43.5 L 1.125 43.5 Z M 1.125 1.5 " clip-rule="nonzero"/></clipPath><clipPath id="100dbf7cf4"><path d="M 3.375 1.5 L 41.625 1.5 C 42.867188 1.5 43.875 2.507812 43.875 3.75 L 43.875 41.25 C 43.875 42.492188 42.867188 43.5 41.625 43.5 L 3.375 43.5 C 2.132812 43.5 1.125 42.492188 1.125 41.25 L 1.125 3.75 C 1.125 2.507812 2.132812 1.5 3.375 1.5 Z M 3.375 1.5 " clip-rule="nonzero"/></clipPath><clipPath id="867be6e87a"><path d="M 1.125 1.5 L 43.875 1.5 L 43.875 43.5 L 1.125 43.5 Z M 1.125 1.5 " clip-rule="nonzero"/></clipPath><clipPath id="be410eb803"><path d="M 3.375 1.5 L 41.625 1.5 C 42.867188 1.5 43.875 2.507812 43.875 3.75 L 43.875 41.25 C 43.875 42.492188 42.867188 43.5 41.625 43.5 L 3.375 43.5 C 2.132812 43.5 1.125 42.492188 1.125 41.25 L 1.125 3.75 C 1.125 2.507812 2.132812 1.5 3.375 1.5 Z M 3.375 1.5 " clip-rule="nonzero"/></clipPath><clipPath id="450fecf979"><path d="M 6.75 6.710938 L 38.25 6.710938 L 38.25 36.710938 L 6.75 36.710938 Z M 6.75 6.710938 " clip-rule="nonzero"/></clipPath></defs><g clip-path="url(#7b1956cdff)"><g clip-path="url(#100dbf7cf4)"><path fill="#f14837" d="M 1.125 1.5 L 43.945312 1.5 L 43.945312 43.5 L 1.125 43.5 Z M 1.125 1.5 " fill-opacity="1" fill-rule="nonzero"/></g></g><g clip-path="url(#867be6e87a)"><g clip-path="url(#be410eb803)"><path stroke-linecap="butt" transform="matrix(0.75, 0, 0, 0.75, 1.125, 1.5)" fill="none" stroke-linejoin="miter" d="M 3 0.000000127778 L 54.000003 0.000000127778 C 55.656253 0.000000127778 57.000003 1.34375 57.000003 3 L 57.000003 53.000004 C 57.000003 54.656254 55.656253 56.000004 54.000003 56.000004 L 3 56.000004 C 1.34375 56.000004 -0.000000570833 54.656254 -0.000000570833 53.000004 L -0.000000570833 3 C -0.000000570833 1.34375 1.34375 0.000000127778 3 0.000000127778 Z M 3 0.000000127778 " stroke="#27354c" stroke-width="4" stroke-opacity="1" stroke-miterlimit="4"/></g></g><g clip-path="url(#450fecf979)"><path fill="#27354c" d="M 25.070312 24.0625 L 27.636719 22.519531 L 25.070312 20.945312 Z M 7.078125 22.519531 L 9.648438 24.0625 L 9.648438 20.945312 Z M 28.683594 24.25 L 28.683594 27 C 28.691406 27.015625 28.695312 27.035156 28.703125 27.054688 L 28.976562 28.078125 C 28.996094 28.152344 29.046875 28.214844 29.109375 28.25 C 29.171875 28.285156 29.246094 28.296875 29.324219 28.277344 L 31.222656 27.769531 C 31.296875 27.75 31.359375 27.699219 31.394531 27.636719 C 31.429688 27.574219 31.445312 27.5 31.421875 27.421875 L 31.148438 26.398438 C 31.105469 26.234375 31.183594 26.054688 31.34375 25.980469 C 31.984375 25.691406 32.582031 25.328125 33.128906 24.90625 C 33.6875 24.480469 34.191406 23.992188 34.632812 23.457031 C 34.742188 23.324219 34.933594 23.289062 35.085938 23.375 L 36.003906 23.90625 C 36.074219 23.945312 36.148438 23.953125 36.21875 23.933594 C 36.289062 23.914062 36.355469 23.871094 36.390625 23.804688 L 37.375 22.101562 C 37.414062 22.035156 37.421875 21.960938 37.402344 21.886719 C 37.382812 21.816406 37.335938 21.753906 37.269531 21.714844 L 36.351562 21.183594 C 36.203125 21.097656 36.136719 20.917969 36.199219 20.75 C 36.441406 20.101562 36.609375 19.421875 36.703125 18.722656 C 36.789062 18.050781 36.804688 17.359375 36.742188 16.664062 C 36.714844 16.484375 36.824219 16.308594 37.003906 16.261719 L 38.027344 15.988281 C 38.101562 15.964844 38.160156 15.917969 38.199219 15.855469 C 38.234375 15.792969 38.246094 15.714844 38.226562 15.640625 L 37.71875 13.742188 C 37.699219 13.667969 37.648438 13.605469 37.585938 13.570312 C 37.523438 13.535156 37.445312 13.519531 37.371094 13.539062 L 36.347656 13.816406 L 36.347656 13.8125 C 36.183594 13.859375 36.003906 13.78125 35.933594 13.621094 C 35.636719 12.976562 35.277344 12.378906 34.855469 11.832031 C 34.429688 11.277344 33.941406 10.773438 33.40625 10.332031 L 33.40625 10.328125 C 33.273438 10.222656 33.238281 10.03125 33.324219 9.878906 L 33.84375 8.976562 C 33.851562 8.96875 33.851562 8.964844 33.855469 8.957031 C 33.894531 8.890625 33.902344 8.8125 33.882812 8.742188 C 33.867188 8.675781 33.824219 8.617188 33.765625 8.578125 L 33.753906 8.570312 L 32.050781 7.585938 C 31.984375 7.546875 31.90625 7.542969 31.835938 7.558594 C 31.765625 7.578125 31.703125 7.625 31.664062 7.691406 L 31.136719 8.597656 C 31.058594 8.753906 30.867188 8.828125 30.699219 8.765625 C 30.050781 8.523438 29.371094 8.351562 28.675781 8.261719 C 28 8.171875 27.308594 8.15625 26.613281 8.21875 C 26.433594 8.25 26.257812 8.140625 26.210938 7.960938 L 25.933594 6.9375 C 25.914062 6.863281 25.867188 6.800781 25.804688 6.765625 C 25.742188 6.726562 25.664062 6.714844 25.589844 6.734375 L 23.691406 7.246094 C 23.617188 7.265625 23.554688 7.3125 23.519531 7.375 C 23.484375 7.4375 23.472656 7.515625 23.492188 7.589844 L 23.765625 8.613281 C 23.808594 8.78125 23.730469 8.957031 23.570312 9.03125 C 22.929688 9.324219 22.328125 9.6875 21.785156 10.109375 C 21.226562 10.535156 20.726562 11.019531 20.28125 11.554688 C 20.171875 11.6875 19.980469 11.726562 19.828125 11.636719 L 18.910156 11.105469 C 18.839844 11.070312 18.765625 11.0625 18.695312 11.078125 C 18.625 11.097656 18.566406 11.136719 18.527344 11.195312 L 18.519531 11.210938 L 17.539062 12.910156 C 17.5 12.980469 17.492188 13.054688 17.511719 13.125 C 17.53125 13.199219 17.574219 13.261719 17.644531 13.300781 L 18.5625 13.832031 C 18.648438 13.878906 18.707031 13.957031 18.726562 14.046875 L 21.542969 14.046875 C 21.972656 13.3125 22.539062 12.652344 23.21875 12.117188 C 23.925781 11.558594 24.757812 11.132812 25.683594 10.882812 C 27.511719 10.394531 29.367188 10.691406 30.886719 11.570312 C 32.40625 12.445312 33.589844 13.902344 34.078125 15.730469 C 34.15625 16.015625 34.210938 16.300781 34.253906 16.589844 C 34.484375 18.292969 34.0625 19.953125 33.164062 21.300781 C 32.269531 22.644531 30.898438 23.679688 29.238281 24.125 C 29.054688 24.171875 28.871094 24.214844 28.683594 24.25 Z M 28.683594 22.523438 L 28.683594 23.523438 C 28.804688 23.496094 28.929688 23.464844 29.050781 23.433594 C 30.535156 23.035156 31.765625 22.113281 32.566406 20.90625 C 33.367188 19.699219 33.75 18.210938 33.539062 16.6875 C 33.503906 16.433594 33.453125 16.175781 33.382812 15.917969 C 32.945312 14.277344 31.886719 12.972656 30.527344 12.1875 C 29.164062 11.402344 27.503906 11.136719 25.863281 11.578125 C 25.035156 11.800781 24.289062 12.179688 23.652344 12.683594 C 23.160156 13.074219 22.730469 13.535156 22.378906 14.050781 L 24.710938 14.050781 C 24.910156 14.050781 25.070312 14.210938 25.070312 14.40625 L 25.070312 20.109375 L 28.511719 22.214844 C 28.621094 22.285156 28.683594 22.402344 28.683594 22.523438 Z M 20.132812 27.867188 L 27.96875 35.425781 L 27.96875 23.152344 L 24.921875 24.988281 C 24.902344 25 24.886719 25.007812 24.871094 25.015625 Z M 15.214844 28.25 L 6.832031 36.335938 L 6.835938 36.34375 C 6.890625 36.398438 6.96875 36.433594 7.046875 36.433594 L 27.671875 36.433594 C 27.753906 36.433594 27.828125 36.398438 27.878906 36.34375 L 27.886719 36.335938 L 19.5 28.25 L 17.550781 29.421875 C 17.4375 29.492188 17.296875 29.496094 17.175781 29.425781 Z M 15.339844 27.488281 C 15.347656 27.492188 15.355469 27.496094 15.359375 27.5 L 17.359375 28.703125 L 19.355469 27.5 C 19.363281 27.496094 19.371094 27.492188 19.378906 27.488281 L 24.351562 24.496094 L 24.351562 14.765625 L 10.363281 14.765625 L 10.363281 24.496094 Z M 6.75 35.425781 L 14.582031 27.867188 L 9.847656 25.015625 C 9.828125 25.007812 9.8125 25 9.796875 24.984375 L 6.75 23.152344 Z M 16.699219 22.800781 C 16.964844 22.851562 17.226562 22.796875 17.441406 22.664062 C 17.636719 22.542969 17.796875 22.351562 17.875 22.117188 L 17.765625 20.339844 C 17.59375 20.222656 17.398438 20.152344 17.195312 20.128906 C 16.949219 20.105469 16.695312 20.15625 16.46875 20.28125 C 16.144531 20.46875 15.941406 20.820312 15.863281 21.207031 C 15.828125 21.398438 15.820312 21.59375 15.847656 21.785156 C 15.871094 21.972656 15.925781 22.148438 16.015625 22.300781 C 16.15625 22.546875 16.382812 22.738281 16.699219 22.800781 Z M 18.554688 22.332031 C 18.605469 22.382812 18.664062 22.425781 18.722656 22.460938 C 18.730469 22.464844 18.738281 22.46875 18.746094 22.472656 C 18.980469 22.605469 19.269531 22.648438 19.566406 22.621094 C 19.882812 22.589844 20.191406 22.476562 20.441406 22.296875 C 20.585938 22.191406 20.707031 22.066406 20.792969 21.921875 C 21.011719 21.546875 21.089844 21.054688 21.035156 20.527344 C 20.980469 19.976562 20.777344 19.402344 20.445312 18.898438 C 20.023438 18.253906 19.433594 17.828125 18.773438 17.601562 C 18.203125 17.402344 17.578125 17.351562 16.964844 17.433594 C 16.347656 17.519531 15.753906 17.738281 15.238281 18.078125 C 14.601562 18.496094 14.089844 19.09375 13.824219 19.847656 L 13.828125 19.847656 C 13.75 20.09375 13.703125 20.335938 13.679688 20.570312 C 13.589844 21.503906 13.890625 22.414062 14.441406 23.167969 C 15 23.929688 15.808594 24.527344 16.742188 24.824219 C 17.03125 24.914062 17.332031 24.980469 17.632812 25.007812 C 17.828125 25.023438 17.976562 25.199219 17.957031 25.394531 C 17.9375 25.589844 17.765625 25.734375 17.570312 25.71875 C 17.207031 25.683594 16.859375 25.609375 16.527344 25.503906 C 15.449219 25.164062 14.511719 24.472656 13.867188 23.589844 C 13.214844 22.699219 12.863281 21.621094 12.96875 20.507812 C 12.996094 20.210938 13.054688 19.921875 13.148438 19.632812 L 13.152344 19.625 C 13.46875 18.710938 14.085938 17.984375 14.847656 17.480469 C 15.453125 17.082031 16.152344 16.828125 16.867188 16.726562 C 17.585938 16.628906 18.324219 16.691406 19.007812 16.925781 C 19.804688 17.203125 20.527344 17.722656 21.042969 18.507812 C 21.4375 19.109375 21.679688 19.796875 21.746094 20.457031 C 21.816406 21.128906 21.707031 21.777344 21.402344 22.285156 C 21.265625 22.515625 21.078125 22.714844 20.859375 22.875 C 20.507812 23.128906 20.070312 23.289062 19.632812 23.332031 C 19.199219 23.375 18.757812 23.300781 18.390625 23.089844 C 18.378906 23.085938 18.367188 23.082031 18.359375 23.074219 C 18.300781 23.039062 18.246094 23.003906 18.191406 22.960938 C 18.082031 23.082031 17.953125 23.1875 17.816406 23.273438 C 17.453125 23.496094 17.011719 23.589844 16.566406 23.5 C 16.023438 23.394531 15.632812 23.074219 15.394531 22.652344 C 15.261719 22.417969 15.179688 22.15625 15.140625 21.882812 C 15.101562 21.613281 15.109375 21.335938 15.164062 21.070312 C 15.277344 20.492188 15.597656 19.957031 16.117188 19.664062 C 16.472656 19.460938 16.878906 19.382812 17.265625 19.421875 C 17.652344 19.464844 18.019531 19.617188 18.328125 19.878906 C 18.40625 19.941406 18.460938 20.03125 18.464844 20.140625 L 18.59375 22.140625 C 18.59375 22.179688 18.589844 22.21875 18.578125 22.257812 C 18.570312 22.28125 18.5625 22.308594 18.554688 22.332031 Z M 18.554688 22.332031 " fill-opacity="1" fill-rule="nonzero"/></g></svg>