<svg xmlns="http://www.w3.org/2000/svg" xmlns:xlink="http://www.w3.org/1999/xlink" width="60" zoomAndPan="magnify" viewBox="0 0 45 44.999999" height="60" preserveAspectRatio="xMidYMid meet" version="1.0"><defs><clipPath id="eb427e35d5"><path d="M 1.125 1.5 L 43.945312 1.5 L 43.945312 43.5 L 1.125 43.5 Z M 1.125 1.5 " clip-rule="nonzero"/></clipPath><clipPath id="2eea882dfc"><path d="M 3.375 1.5 L 41.625 1.5 C 42.867188 1.5 43.875 2.507812 43.875 3.75 L 43.875 41.25 C 43.875 42.492188 42.867188 43.5 41.625 43.5 L 3.375 43.5 C 2.132812 43.5 1.125 42.492188 1.125 41.25 L 1.125 3.75 C 1.125 2.507812 2.132812 1.5 3.375 1.5 Z M 3.375 1.5 " clip-rule="nonzero"/></clipPath><clipPath id="43d07ffcfe"><path d="M 1.125 1.5 L 43.875 1.5 L 43.875 43.5 L 1.125 43.5 Z M 1.125 1.5 " clip-rule="nonzero"/></clipPath><clipPath id="6f19679e75"><path d="M 3.375 1.5 L 41.625 1.5 C 42.867188 1.5 43.875 2.507812 43.875 3.75 L 43.875 41.25 C 43.875 42.492188 42.867188 43.5 41.625 43.5 L 3.375 43.5 C 2.132812 43.5 1.125 42.492188 1.125 41.25 L 1.125 3.75 C 1.125 2.507812 2.132812 1.5 3.375 1.5 Z M 3.375 1.5 " clip-rule="nonzero"/></clipPath><clipPath id="1189840c68"><path d="M 6.75 17 L 12 17 L 12 22 L 6.75 22 Z M 6.75 17 " clip-rule="nonzero"/></clipPath><clipPath id="66a8062278"><path d="M 30 6.828125 L 38.25 6.828125 L 38.25 15 L 30 15 Z M 30 6.828125 " clip-rule="nonzero"/></clipPath><clipPath id="182b6807c2"><path d="M 6.75 20 L 38.25 20 L 38.25 38.328125 L 6.75 38.328125 Z M 6.75 20 " clip-rule="nonzero"/></clipPath></defs><g clip-path="url(#eb427e35d5)"><g clip-path="url(#2eea882dfc)"><path fill="#f14837" d="M 1.125 1.5 L 43.945312 1.5 L 43.945312 43.5 L 1.125 43.5 Z M 1.125 1.5 " fill-opacity="1" fill-rule="nonzero"/></g></g><g clip-path="url(#43d07ffcfe)"><g clip-path="url(#6f19679e75)"><path stroke-linecap="butt" transform="matrix(0.75, 0, 0, 0.75, 1.125, 1.5)" fill="none" stroke-linejoin="miter" d="M 3 -0.0000000322222 L 54.000003 -0.0000000322222 C 55.656253 -0.0000000322222 57.000003 1.34375 57.000003 3 L 57.000003 53.000003 C 57.000003 54.656253 55.656253 56.000004 54.000003 56.000004 L 3 56.000004 C 1.34375 56.000004 -0.000000570833 54.656253 -0.000000570833 53.000003 L -0.000000570833 3 C -0.000000570833 1.34375 1.34375 -0.0000000322222 3 -0.0000000322222 Z M 3 -0.0000000322222 " stroke="#27354c" stroke-width="4" stroke-opacity="1" stroke-miterlimit="4"/></g></g><path fill="#27354c" d="M 31.25 20.824219 C 31.226562 20.796875 31.199219 20.773438 31.175781 20.75 C 30.625 20.214844 29.675781 19.382812 28.472656 18.726562 C 27.835938 18.378906 27.132812 18.082031 26.378906 17.90625 C 25.910156 17.792969 25.417969 17.730469 24.921875 17.730469 C 24.386719 17.730469 23.863281 17.804688 23.363281 17.925781 C 22.648438 18.109375 21.976562 18.394531 21.367188 18.722656 C 20.105469 19.414062 19.121094 20.296875 18.585938 20.828125 C 18.425781 20.988281 18.363281 21.214844 18.410156 21.425781 C 18.4375 21.542969 18.488281 21.660156 18.585938 21.753906 C 18.886719 22.058594 19.34375 22.472656 19.902344 22.90625 C 20.285156 23.199219 20.71875 23.496094 21.199219 23.769531 C 21.9375 24.1875 22.773438 24.546875 23.667969 24.726562 C 23.761719 24.75 23.851562 24.761719 23.941406 24.777344 C 24.257812 24.828125 24.585938 24.855469 24.917969 24.855469 C 25.339844 24.855469 25.757812 24.808594 26.15625 24.726562 C 26.976562 24.5625 27.742188 24.253906 28.429688 23.878906 C 28.992188 23.578125 29.492188 23.238281 29.929688 22.90625 C 30.449219 22.507812 30.875 22.125 31.171875 21.828125 C 31.195312 21.808594 31.222656 21.785156 31.246094 21.757812 C 31.503906 21.5 31.503906 21.085938 31.246094 20.828125 Z M 27.515625 21.523438 C 27.515625 21.621094 27.445312 21.699219 27.347656 21.710938 L 26.699219 21.796875 C 26.660156 21.933594 26.601562 22.058594 26.535156 22.183594 L 26.933594 22.707031 C 26.980469 22.761719 26.992188 22.835938 26.960938 22.902344 C 26.949219 22.921875 26.941406 22.941406 26.921875 22.964844 L 26.589844 23.289062 C 26.527344 23.355469 26.417969 23.367188 26.339844 23.304688 L 25.816406 22.902344 C 25.691406 22.972656 25.5625 23.023438 25.433594 23.0625 L 25.339844 23.714844 C 25.332031 23.816406 25.25 23.886719 25.15625 23.886719 L 24.6875 23.886719 C 24.589844 23.886719 24.511719 23.816406 24.5 23.714844 L 24.410156 23.0625 C 24.277344 23.023438 24.152344 22.972656 24.023438 22.902344 L 23.5 23.304688 C 23.425781 23.367188 23.3125 23.355469 23.253906 23.289062 L 22.921875 22.964844 C 22.898438 22.941406 22.890625 22.921875 22.878906 22.902344 C 22.851562 22.835938 22.859375 22.761719 22.90625 22.707031 L 23.304688 22.183594 C 23.238281 22.058594 23.183594 21.933594 23.140625 21.796875 L 22.492188 21.710938 C 22.394531 21.703125 22.324219 21.621094 22.324219 21.523438 L 22.324219 21.058594 C 22.324219 20.960938 22.394531 20.875 22.492188 20.871094 L 23.140625 20.777344 C 23.183594 20.648438 23.238281 20.515625 23.304688 20.394531 L 22.90625 19.871094 C 22.84375 19.796875 22.851562 19.6875 22.921875 19.617188 L 23.253906 19.285156 C 23.3125 19.21875 23.421875 19.214844 23.5 19.277344 L 24.023438 19.675781 C 24.152344 19.605469 24.277344 19.546875 24.410156 19.511719 L 24.5 18.863281 C 24.507812 18.765625 24.589844 18.691406 24.6875 18.691406 L 25.15625 18.691406 C 25.25 18.691406 25.332031 18.765625 25.339844 18.863281 L 25.433594 19.511719 C 25.5625 19.546875 25.691406 19.605469 25.816406 19.675781 L 26.339844 19.277344 C 26.414062 19.214844 26.527344 19.21875 26.589844 19.285156 L 26.921875 19.617188 C 26.992188 19.6875 26.996094 19.792969 26.933594 19.871094 L 26.535156 20.394531 C 26.601562 20.515625 26.660156 20.648438 26.699219 20.777344 L 27.347656 20.871094 C 27.445312 20.875 27.515625 20.960938 27.515625 21.058594 Z M 27.515625 21.523438 " fill-opacity="1" fill-rule="nonzero"/><g clip-path="url(#1189840c68)"><path fill="#27354c" d="M 7.066406 19.46875 L 8.859375 17.675781 C 8.949219 17.589844 9.050781 17.546875 9.171875 17.546875 C 9.296875 17.546875 9.398438 17.589844 9.484375 17.675781 L 10.972656 19.160156 C 11.058594 19.246094 11.101562 19.351562 11.101562 19.472656 C 11.101562 19.59375 11.058594 19.699219 10.972656 19.785156 L 9.175781 21.582031 C 9.089844 21.667969 8.984375 21.710938 8.863281 21.710938 C 8.742188 21.710938 8.636719 21.667969 8.550781 21.582031 L 7.066406 20.09375 C 6.980469 20.007812 6.9375 19.902344 6.9375 19.78125 C 6.9375 19.660156 6.980469 19.554688 7.066406 19.46875 Z M 7.066406 19.46875 " fill-opacity="1" fill-rule="nonzero"/></g><path fill="#27354c" d="M 10.621094 15.914062 L 12.554688 13.984375 C 12.640625 13.898438 12.742188 13.851562 12.863281 13.851562 C 12.988281 13.851562 13.089844 13.898438 13.175781 13.984375 L 14.664062 15.46875 C 14.75 15.554688 14.792969 15.660156 14.792969 15.78125 C 14.792969 15.902344 14.75 16.007812 14.664062 16.09375 L 12.730469 18.023438 C 12.644531 18.109375 12.539062 18.152344 12.417969 18.152344 C 12.296875 18.152344 12.191406 18.109375 12.105469 18.023438 L 10.621094 16.539062 C 10.535156 16.453125 10.492188 16.347656 10.492188 16.226562 C 10.492188 16.105469 10.535156 16 10.621094 15.914062 Z M 10.621094 15.914062 " fill-opacity="1" fill-rule="nonzero"/><path fill="#27354c" d="M 23.046875 16.183594 C 21.945312 16.441406 20.949219 16.898438 20.074219 17.429688 L 18.664062 16.015625 C 18.492188 15.84375 18.492188 15.5625 18.664062 15.390625 L 20.144531 13.90625 C 20.320312 13.738281 20.601562 13.738281 20.769531 13.90625 Z M 23.046875 16.183594 " fill-opacity="1" fill-rule="nonzero"/><path fill="#27354c" d="M 31.175781 16.015625 L 29.769531 17.421875 C 28.898438 16.898438 27.894531 16.441406 26.792969 16.183594 L 29.070312 13.90625 C 29.238281 13.738281 29.523438 13.738281 29.695312 13.90625 L 31.175781 15.390625 C 31.347656 15.5625 31.347656 15.84375 31.175781 16.015625 Z M 31.175781 16.015625 " fill-opacity="1" fill-rule="nonzero"/><path fill="#27354c" d="M 16.699219 9.390625 C 15.289062 9.390625 14.144531 10.535156 14.144531 11.945312 C 14.144531 13.359375 15.289062 14.503906 16.699219 14.503906 C 18.113281 14.503906 19.257812 13.359375 19.257812 11.945312 C 19.257812 10.535156 18.113281 9.390625 16.699219 9.390625 Z M 16.699219 9.390625 " fill-opacity="1" fill-rule="nonzero"/><g clip-path="url(#66a8062278)"><path fill="#27354c" d="M 37.71875 6.886719 L 31.660156 8.167969 C 31.347656 8.234375 31.230469 8.621094 31.457031 8.847656 L 32.792969 10.183594 L 31.078125 11.898438 C 30.90625 12.070312 30.90625 12.351562 31.078125 12.523438 L 32.5625 14.007812 C 32.734375 14.179688 33.015625 14.179688 33.1875 14.007812 L 34.902344 12.292969 L 36.234375 13.625 C 36.464844 13.855469 36.851562 13.738281 36.917969 13.425781 L 38.199219 7.363281 C 38.257812 7.078125 38.003906 6.828125 37.722656 6.886719 Z M 37.71875 6.886719 " fill-opacity="1" fill-rule="nonzero"/></g><path fill="#27354c" d="M 24.917969 20.195312 C 24.316406 20.195312 23.824219 20.683594 23.824219 21.289062 C 23.824219 21.894531 24.316406 22.382812 24.917969 22.382812 C 25.523438 22.382812 26.015625 21.894531 26.015625 21.289062 C 25.410156 21.289062 24.917969 20.796875 24.917969 20.195312 Z M 24.917969 20.195312 " fill-opacity="1" fill-rule="nonzero"/><g clip-path="url(#182b6807c2)"><path fill="#27354c" d="M 37.703125 34.816406 L 35.671875 34.816406 L 35.671875 20.695312 C 35.671875 20.417969 35.445312 20.191406 35.164062 20.191406 L 32.9375 20.191406 C 33.113281 20.53125 33.214844 20.90625 33.214844 21.296875 C 33.210938 21.945312 32.953125 22.550781 32.492188 23.007812 C 32.074219 23.421875 31.636719 23.808594 31.175781 24.167969 L 31.175781 34.816406 L 28.433594 34.816406 L 28.433594 25.832031 C 27.792969 26.117188 27.144531 26.320312 26.503906 26.449219 C 25.992188 26.554688 25.449219 26.613281 24.921875 26.613281 C 24.597656 26.613281 24.269531 26.589844 23.941406 26.546875 L 23.941406 34.816406 L 21.199219 34.816406 L 21.199219 25.746094 C 20.402344 25.382812 19.609375 24.898438 18.832031 24.300781 C 18.515625 24.058594 18.207031 23.796875 17.90625 23.527344 L 17.214844 23.527344 C 16.9375 23.527344 16.710938 23.753906 16.710938 24.03125 L 16.710938 34.816406 L 13.964844 34.816406 L 13.964844 23.527344 L 9.976562 23.527344 C 9.699219 23.527344 9.472656 23.753906 9.472656 24.03125 L 9.472656 34.816406 L 7.4375 34.816406 C 7.160156 34.816406 6.933594 35.039062 6.933594 35.320312 L 6.933594 37.644531 C 6.933594 37.921875 7.160156 38.148438 7.4375 38.148438 L 37.703125 38.148438 C 37.980469 38.148438 38.207031 37.925781 38.207031 37.644531 L 38.207031 35.320312 C 38.207031 35.042969 37.984375 34.816406 37.703125 34.816406 Z M 37.703125 34.816406 " fill-opacity="1" fill-rule="nonzero"/></g></svg>