<svg xmlns="http://www.w3.org/2000/svg" xmlns:xlink="http://www.w3.org/1999/xlink" width="60" zoomAndPan="magnify" viewBox="0 0 45 44.999999" height="60" preserveAspectRatio="xMidYMid meet" version="1.0"><defs><clipPath id="490e1ac58f"><path d="M 1.125 1.5 L 43.945312 1.5 L 43.945312 43.5 L 1.125 43.5 Z M 1.125 1.5 " clip-rule="nonzero"/></clipPath><clipPath id="21c5831ba9"><path d="M 3.375 1.5 L 41.625 1.5 C 42.867188 1.5 43.875 2.507812 43.875 3.75 L 43.875 41.25 C 43.875 42.492188 42.867188 43.5 41.625 43.5 L 3.375 43.5 C 2.132812 43.5 1.125 42.492188 1.125 41.25 L 1.125 3.75 C 1.125 2.507812 2.132812 1.5 3.375 1.5 Z M 3.375 1.5 " clip-rule="nonzero"/></clipPath><clipPath id="6006ffba4a"><path d="M 1.125 1.5 L 43.875 1.5 L 43.875 43.5 L 1.125 43.5 Z M 1.125 1.5 " clip-rule="nonzero"/></clipPath><clipPath id="aa90391cb9"><path d="M 3.375 1.5 L 41.625 1.5 C 42.867188 1.5 43.875 2.507812 43.875 3.75 L 43.875 41.25 C 43.875 42.492188 42.867188 43.5 41.625 43.5 L 3.375 43.5 C 2.132812 43.5 1.125 42.492188 1.125 41.25 L 1.125 3.75 C 1.125 2.507812 2.132812 1.5 3.375 1.5 Z M 3.375 1.5 " clip-rule="nonzero"/></clipPath><clipPath id="f099e0156d"><path d="M 7 6.933594 L 37.703125 6.933594 L 37.703125 38.433594 L 7 38.433594 Z M 7 6.933594 " clip-rule="nonzero"/></clipPath></defs><g clip-path="url(#490e1ac58f)"><g clip-path="url(#21c5831ba9)"><path fill="#f14837" d="M 1.125 1.5 L 43.945312 1.5 L 43.945312 43.5 L 1.125 43.5 Z M 1.125 1.5 " fill-opacity="1" fill-rule="nonzero"/></g></g><g clip-path="url(#6006ffba4a)"><g clip-path="url(#aa90391cb9)"><path stroke-linecap="butt" transform="matrix(0.75, 0, 0, 0.75, 1.125, 1.5)" fill="none" stroke-linejoin="miter" d="M 3 -0.0000000322222 L 54.000003 -0.0000000322222 C 55.656253 -0.0000000322222 57.000003 1.34375 57.000003 3 L 57.000003 53.000003 C 57.000003 54.656253 55.656253 56.000004 54.000003 56.000004 L 3 56.000004 C 1.34375 56.000004 -0.000000570833 54.656253 -0.000000570833 53.000003 L -0.000000570833 3 C -0.000000570833 1.34375 1.34375 -0.0000000322222 3 -0.0000000322222 Z M 3 -0.0000000322222 " stroke="#27354c" stroke-width="4" stroke-opacity="1" stroke-miterlimit="4"/></g></g><path fill="#27354c" d="M 19.191406 22.21875 C 19.191406 22.589844 18.917969 22.875 18.554688 22.933594 C 18.917969 23.015625 19.191406 23.300781 19.191406 23.675781 L 19.191406 25.535156 C 19.191406 26.484375 18.675781 26.992188 17.722656 26.992188 L 16.550781 26.992188 C 15.628906 26.992188 15.132812 26.496094 15.132812 25.574219 L 15.132812 25.242188 C 15.132812 25.109375 15.203125 25.039062 15.335938 25.039062 L 16.308594 25.039062 C 16.4375 25.039062 16.507812 25.109375 16.507812 25.242188 L 16.507812 25.65625 L 17.644531 25.65625 C 17.773438 25.65625 17.84375 25.585938 17.84375 25.453125 L 17.84375 24.019531 C 17.84375 23.753906 17.714844 23.613281 17.441406 23.613281 L 16.246094 23.613281 C 16.113281 23.613281 16.042969 23.542969 16.042969 23.410156 L 16.042969 22.480469 C 16.042969 22.347656 16.113281 22.277344 16.246094 22.277344 L 17.441406 22.277344 C 17.703125 22.277344 17.84375 22.136719 17.84375 21.882812 L 17.84375 20.4375 C 17.84375 20.304688 17.773438 20.234375 17.644531 20.234375 L 16.507812 20.234375 L 16.507812 20.648438 C 16.507812 20.78125 16.4375 20.851562 16.308594 20.851562 L 15.335938 20.851562 C 15.203125 20.851562 15.132812 20.78125 15.132812 20.648438 L 15.132812 20.234375 C 15.132812 19.363281 15.628906 18.898438 16.550781 18.898438 L 17.722656 18.898438 C 18.675781 18.898438 19.191406 19.40625 19.191406 20.355469 L 19.191406 22.21875 " fill-opacity="1" fill-rule="nonzero"/><path fill="#27354c" d="M 22.507812 25.65625 C 22.769531 25.65625 22.910156 25.515625 22.910156 25.253906 L 22.910156 23.765625 C 22.910156 23.5 22.769531 23.359375 22.507812 23.359375 L 21.941406 23.359375 C 21.675781 23.359375 21.535156 23.5 21.535156 23.765625 L 21.535156 25.253906 C 21.535156 25.515625 21.675781 25.65625 21.941406 25.65625 Z M 22.832031 22.023438 C 23.75 22.023438 24.246094 22.519531 24.246094 23.441406 L 24.246094 25.574219 C 24.246094 26.496094 23.75 26.992188 22.832031 26.992188 L 21.617188 26.992188 C 20.695312 26.992188 20.199219 26.496094 20.199219 25.574219 L 20.199219 22.976562 C 20.199219 22.785156 20.230469 22.652344 20.300781 22.46875 L 21.738281 19.050781 C 21.777344 18.949219 21.847656 18.898438 21.96875 18.898438 L 23.023438 18.898438 C 23.175781 18.898438 23.234375 18.988281 23.175781 19.132812 L 21.949219 22.023438 L 22.832031 22.023438 " fill-opacity="1" fill-rule="nonzero"/><path fill="#27354c" d="M 27.59375 25.6875 C 27.855469 25.6875 28 25.554688 28 25.28125 L 28 20.609375 C 28 20.34375 27.855469 20.203125 27.59375 20.203125 L 27.007812 20.203125 C 26.742188 20.203125 26.601562 20.34375 26.601562 20.609375 L 26.601562 25.28125 C 26.601562 25.554688 26.742188 25.6875 27.007812 25.6875 Z M 25.257812 20.355469 C 25.257812 19.40625 25.761719 18.898438 26.714844 18.898438 L 27.847656 18.898438 C 28.796875 18.898438 29.304688 19.40625 29.304688 20.355469 L 29.304688 25.535156 C 29.304688 26.484375 28.796875 26.992188 27.847656 26.992188 L 26.714844 26.992188 C 25.761719 26.992188 25.257812 26.484375 25.257812 25.535156 L 25.257812 20.355469 " fill-opacity="1" fill-rule="nonzero"/><path fill="#27354c" d="M 31.304688 18.929688 C 30.984375 18.929688 30.722656 19.191406 30.722656 19.511719 C 30.722656 19.832031 30.984375 20.09375 31.304688 20.09375 C 31.625 20.09375 31.886719 19.832031 31.886719 19.511719 C 31.886719 19.191406 31.625 18.929688 31.304688 18.929688 Z M 31.304688 21.128906 C 30.414062 21.128906 29.6875 20.402344 29.6875 19.511719 C 29.6875 18.621094 30.414062 17.894531 31.304688 17.894531 C 32.195312 17.894531 32.921875 18.621094 32.921875 19.511719 C 32.921875 20.402344 32.195312 21.128906 31.304688 21.128906 " fill-opacity="1" fill-rule="nonzero"/><path fill="#27354c" d="M 28.570312 31.925781 C 28.570312 31.925781 28.332031 32.121094 27.890625 32.480469 C 27.671875 32.667969 27.394531 32.882812 27.050781 33.121094 C 26.710938 33.367188 26.316406 33.644531 25.847656 33.910156 C 24.933594 34.472656 23.753906 35.078125 22.308594 35.539062 C 20.867188 36.003906 19.144531 36.351562 17.230469 36.222656 C 16.28125 36.128906 15.277344 35.964844 14.296875 35.574219 C 13.324219 35.179688 12.351562 34.632812 11.527344 33.851562 L 11.445312 33.78125 L 11.40625 33.746094 L 11.339844 33.675781 L 11.207031 33.527344 L 10.941406 33.234375 C 10.761719 33.039062 10.582031 32.851562 10.410156 32.585938 C 10.242188 32.332031 10.070312 32.078125 9.898438 31.824219 C 9.765625 31.5625 9.632812 31.296875 9.503906 31.027344 C 9.019531 29.945312 8.695312 28.75 8.628906 27.53125 L 8.585938 27.074219 L 8.589844 26.617188 C 8.597656 26.3125 8.589844 26 8.609375 25.695312 C 8.679688 25.085938 8.714844 24.460938 8.855469 23.859375 C 9.066406 22.628906 9.492188 21.445312 9.976562 20.289062 C 11.007812 17.996094 12.480469 15.882812 14.253906 14.066406 C 14.746094 13.59375 15.144531 13.222656 15.632812 12.800781 C 16.140625 12.410156 16.628906 11.960938 17.160156 11.625 C 17.679688 11.261719 18.203125 10.90625 18.757812 10.605469 C 19.292969 10.273438 19.867188 10.007812 20.433594 9.738281 C 21 9.46875 21.59375 9.261719 22.179688 9.042969 C 22.78125 8.875 23.367188 8.667969 23.984375 8.570312 C 25.195312 8.292969 26.4375 8.226562 27.652344 8.28125 C 28.875 8.34375 30.066406 8.632812 31.167969 9.082031 C 32.265625 9.558594 33.226562 10.25 34.035156 11.042969 C 34.035156 11.039062 34.101562 11.109375 34.101562 11.109375 L 34.132812 11.148438 L 34.195312 11.222656 L 34.324219 11.371094 L 34.574219 11.667969 C 34.742188 11.847656 34.902344 12.105469 35.058594 12.339844 C 35.398438 12.808594 35.601562 13.296875 35.832031 13.773438 C 36.210938 14.757812 36.441406 15.746094 36.523438 16.699219 C 36.707031 18.613281 36.363281 20.34375 35.921875 21.789062 C 35.480469 23.242188 34.882812 24.425781 34.332031 25.347656 C 34.191406 25.578125 34.0625 25.796875 33.941406 26.003906 C 33.800781 26.199219 33.675781 26.382812 33.554688 26.554688 C 33.320312 26.902344 33.109375 27.183594 32.921875 27.402344 C 32.566406 27.847656 32.375 28.085938 32.375 28.085938 C 32.375 28.085938 32.539062 27.832031 32.84375 27.347656 C 33.003906 27.113281 33.183594 26.808594 33.375 26.441406 C 33.578125 26.082031 33.800781 25.667969 34.019531 25.183594 C 34.476562 24.234375 34.945312 23.03125 35.269531 21.613281 C 35.582031 20.199219 35.777344 18.546875 35.515625 16.820312 C 35.390625 15.957031 35.125 15.09375 34.75 14.253906 C 34.519531 13.859375 34.320312 13.421875 34.042969 13.078125 C 33.910156 12.894531 33.804688 12.710938 33.609375 12.519531 L 33.34375 12.234375 L 33.210938 12.089844 L 33.144531 12.019531 L 33.113281 11.980469 C 33.101562 11.96875 33.15625 12.027344 33.125 11.996094 C 32.386719 11.34375 31.558594 10.796875 30.617188 10.433594 C 29.660156 10.105469 28.648438 9.859375 27.578125 9.839844 C 25.445312 9.769531 23.214844 10.328125 21.148438 11.289062 C 20.632812 11.542969 20.113281 11.785156 19.625 12.097656 C 19.117188 12.375 18.640625 12.707031 18.167969 13.042969 C 17.671875 13.359375 17.269531 13.75 16.8125 14.097656 C 16.382812 14.476562 15.894531 14.945312 15.507812 15.3125 C 13.863281 16.972656 12.496094 18.90625 11.535156 20.984375 C 11.09375 22.035156 10.683594 23.097656 10.46875 24.1875 C 10.320312 24.726562 10.28125 25.277344 10.203125 25.816406 C 10.179688 26.085938 10.179688 26.359375 10.167969 26.628906 L 10.152344 27.03125 L 10.179688 27.429688 C 10.203125 28.496094 10.476562 29.511719 10.832031 30.449219 C 10.933594 30.679688 11.035156 30.910156 11.136719 31.136719 C 11.261719 31.339844 11.382812 31.539062 11.507812 31.738281 C 11.605469 31.9375 11.789062 32.144531 11.960938 32.351562 L 12.214844 32.65625 L 12.339844 32.808594 C 12.347656 32.816406 12.398438 32.875 12.339844 32.808594 L 12.371094 32.839844 L 12.4375 32.902344 C 13.109375 33.597656 13.925781 34.089844 14.75 34.488281 C 15.585938 34.878906 16.472656 35.078125 17.332031 35.214844 C 19.066406 35.425781 20.714844 35.230469 22.125 34.890625 C 23.535156 34.542969 24.738281 34.074219 25.683594 33.601562 C 26.164062 33.378906 26.574219 33.148438 26.933594 32.945312 C 27.296875 32.75 27.597656 32.566406 27.832031 32.40625 C 28.3125 32.09375 28.570312 31.925781 28.570312 31.925781 " fill-opacity="1" fill-rule="nonzero"/><g clip-path="url(#f099e0156d)"><path fill="#27354c" d="M 30.523438 14.617188 C 30.523438 14.617188 30.265625 14.402344 29.785156 13.996094 C 29.316406 13.570312 28.570312 13.023438 27.636719 12.332031 C 26.664062 11.683594 25.480469 10.898438 24.023438 10.207031 C 22.574219 9.503906 20.871094 8.835938 18.957031 8.46875 C 18.472656 8.410156 17.988281 8.28125 17.484375 8.273438 C 17.234375 8.257812 16.984375 8.238281 16.730469 8.222656 C 16.476562 8.207031 16.21875 8.238281 15.964844 8.242188 C 15.445312 8.234375 14.9375 8.335938 14.421875 8.40625 C 14.160156 8.441406 13.917969 8.539062 13.664062 8.601562 C 13.40625 8.664062 13.15625 8.738281 12.921875 8.859375 C 11.933594 9.222656 11.058594 9.890625 10.386719 10.710938 C 9.941406 11.199219 9.773438 11.621094 9.507812 12.085938 C 9.40625 12.339844 9.304688 12.601562 9.199219 12.859375 C 9.109375 13.125 9.0625 13.410156 8.988281 13.683594 C 8.515625 15.929688 8.949219 18.445312 9.832031 20.792969 C 10.703125 23.164062 12.070312 25.40625 13.722656 27.402344 C 15.351562 29.414062 17.289062 31.234375 19.359375 32.6875 C 21.449219 34.152344 23.722656 35.285156 26.03125 35.925781 C 26.316406 36.023438 26.609375 36.070312 26.898438 36.128906 C 27.191406 36.183594 27.476562 36.261719 27.765625 36.292969 C 28.34375 36.351562 28.917969 36.441406 29.480469 36.421875 C 30.050781 36.460938 30.597656 36.367188 31.144531 36.320312 C 31.667969 36.191406 32.210938 36.117188 32.6875 35.898438 C 33.195312 35.742188 33.621094 35.449219 34.066406 35.203125 C 34.261719 35.046875 34.457031 34.886719 34.652344 34.730469 C 34.734375 34.660156 34.878906 34.558594 34.914062 34.511719 L 35.191406 34.214844 L 35.464844 33.917969 L 35.667969 33.632812 C 35.800781 33.445312 35.941406 33.261719 36.050781 33.039062 C 36.300781 32.625 36.46875 32.179688 36.636719 31.738281 C 37.207031 29.929688 37.175781 28.09375 36.925781 26.519531 C 36.671875 24.9375 36.234375 23.589844 35.816406 22.5 C 35.378906 21.421875 34.984375 20.585938 34.6875 20.03125 C 34.386719 19.476562 34.230469 19.179688 34.230469 19.179688 C 34.230469 19.179688 34.417969 19.457031 34.777344 19.980469 C 35.128906 20.503906 35.628906 21.285156 36.164062 22.347656 C 36.683594 23.410156 37.265625 24.746094 37.640625 26.382812 C 37.847656 27.195312 37.953125 28.089844 38.011719 29.039062 C 38.027344 29.992188 37.957031 31.011719 37.683594 32.050781 C 37.148438 34.105469 35.609375 36.289062 33.226562 37.214844 C 32.65625 37.5 32.03125 37.621094 31.414062 37.792969 C 30.785156 37.878906 30.144531 38.003906 29.5 37.992188 C 28.203125 38.058594 26.898438 37.851562 25.617188 37.550781 C 23.0625 36.898438 20.554688 35.769531 18.316406 34.199219 C 16.046875 32.628906 14.015625 30.753906 12.246094 28.605469 C 10.496094 26.453125 9.042969 24.035156 8.105469 21.429688 C 7.609375 20.136719 7.304688 18.777344 7.144531 17.414062 C 6.96875 16.046875 7.0625 14.648438 7.355469 13.3125 C 7.910156 10.597656 10.015625 8.316406 12.410156 7.535156 C 13.59375 7.113281 14.804688 6.933594 15.945312 6.972656 C 16.230469 6.984375 16.515625 6.96875 16.792969 7 C 17.070312 7.035156 17.347656 7.070312 17.617188 7.101562 C 18.164062 7.144531 18.675781 7.308594 19.1875 7.40625 C 21.214844 7.902344 22.929688 8.734375 24.363281 9.566406 C 25.816406 10.382812 26.945312 11.292969 27.863281 12.035156 C 28.761719 12.816406 29.429688 13.453125 29.855469 13.921875 C 30.289062 14.375 30.523438 14.617188 30.523438 14.617188 " fill-opacity="1" fill-rule="nonzero"/></g></svg>